<svg width="128" height="26" viewBox="0 0 128 26" fill="none" xmlns="http://www.w3.org/2000/svg">
<path d="M0.00490189 0.00488281V20.8049H3.3596V13.1293L10.167 20.8049H14.6399L8.2984 13.7424C11.403 13.046 13.7277 10.27 13.7277 6.95947C13.7277 3.12413 10.6085 0.00488281 6.7731 0.00488281H0H0.00490189ZM6.7781 3.54102C8.6565 3.54102 10.1818 5.08107 10.1818 6.95947C10.1818 8.83787 8.6565 10.3632 6.7781 10.3632H6.7339H3.3645V3.54102H6.783H6.7781Z" fill="black"/>
<path d="M77.0626 0.00490999V20.8049H80.4176V13.8945H83.4046C83.5516 13.8945 83.7036 13.8945 83.8316 13.8945C87.6666 13.8945 90.7856 10.7899 90.7856 6.95457C90.7856 3.11927 87.6666 0 83.8316 0H77.0586L77.0626 0.00490999ZM83.8366 3.54104C85.7146 3.54104 87.2396 5.08107 87.2396 6.95947C87.2396 8.83787 85.7146 10.3632 83.8366 10.3632H83.7916H80.4326V3.54104H83.8366Z" fill="black"/>
<path d="M43.5956 6.79767C42.3449 5.91977 40.8245 5.40477 39.1815 5.40477C34.9342 5.40477 31.4766 8.86247 31.4766 13.1097C31.4766 17.357 34.9342 20.8147 39.1815 20.8147C40.8245 20.8147 42.3449 20.2997 43.5956 19.4218V20.8147H46.9552V0H43.5956V6.80257V6.79767ZM39.1815 17.2197C36.9108 17.2197 35.0618 15.3707 35.0618 13.1048C35.0618 10.839 36.9108 8.98507 39.1815 8.98507C41.4523 8.98507 43.2964 10.8341 43.2964 13.1048C43.2964 15.3756 41.4474 17.2197 39.1815 17.2197Z" fill="black"/>
<path d="M70.9193 2.18264H67.5653V6.30237H64.4453V9.07837H67.5653V15.9839C67.5653 17.4357 68.0113 18.6029 68.8943 19.4563C69.8113 20.344 70.8753 20.7364 72.3413 20.7364H74.4263V17.3817H72.9743C72.3223 17.3817 71.8173 17.2002 71.4593 16.8422C71.1063 16.4842 70.9243 15.9888 70.9243 15.3709V9.07347H74.4603V6.29747H70.9243V2.17773L70.9193 2.18264Z" fill="black"/>
<path d="M111.209 25.4053H115.212L116.855 21.5161L123.976 5.40479H119.915L115.859 15.4541L112.019 5.40479H107.992L113.809 19.6867L111.209 25.4053Z" fill="black"/>
<path d="M103.43 6.90069C102.155 5.96389 100.581 5.40479 98.8786 5.40479C94.6356 5.40479 91.1836 8.85758 91.1836 13.1C91.1836 17.3424 94.6356 20.7951 98.8786 20.7951C100.581 20.7951 102.155 20.2409 103.43 19.2992V20.8049H106.76V5.41949H103.43V6.89579V6.90069ZM98.8836 17.2148C96.6176 17.2148 94.7686 15.3707 94.7686 13.1C94.7686 10.8292 96.6126 8.98508 98.8836 8.98508C101.154 8.98508 102.998 10.8292 102.998 13.1C102.998 15.3707 101.154 17.2148 98.8836 17.2148Z" fill="black"/>
<path d="M56.2704 5.40967C52.0231 5.40967 48.5703 8.86247 48.5703 13.1098C48.5703 17.3571 52.0231 20.8098 56.2704 20.8098C60.5177 20.8098 63.9701 17.3571 63.9701 13.1098C63.9701 8.86247 60.5177 5.40967 56.2704 5.40967ZM56.2704 17.2197C53.9996 17.2197 52.1555 15.3707 52.1555 13.1048C52.1555 10.839 54.0045 8.98997 56.2704 8.98997C58.5363 8.98997 60.3902 10.839 60.3902 13.1048C60.3902 15.3707 58.5412 17.2197 56.2704 17.2197Z" fill="black"/>
<path d="M22.1649 5.40492C17.9176 5.40492 14.4648 8.85762 14.4648 13.1049C14.4648 17.3522 17.9176 20.805 22.1649 20.805C24.8918 20.805 27.344 19.3974 28.7271 17.1266L25.2743 15.7877C24.519 16.6607 23.4057 17.2149 22.1649 17.2149C20.414 17.2149 18.9132 16.1114 18.3197 14.5665H29.7227L29.7374 14.4831C29.8208 14.0221 29.8649 13.5561 29.8649 13.0951C29.8649 8.84782 26.4122 5.39502 22.1649 5.39502V5.40492ZM25.9805 11.6385H18.3197C18.9132 10.0887 20.414 8.98512 22.1649 8.98512C23.9158 8.98512 25.4214 10.0887 26.01 11.6385H25.9756H25.9805Z" fill="black"/>
<path d="M125.842 0C126.197 0 126.516 0.0827003 126.798 0.24811C127.079 0.40739 127.3 0.631 127.459 0.91893C127.619 1.20073 127.698 1.51929 127.698 1.87461C127.698 2.22993 127.619 2.55156 127.459 2.83949C127.3 3.12742 127.079 3.35409 126.798 3.5195C126.516 3.67878 126.197 3.75842 125.842 3.75842C125.48 3.75842 125.159 3.67878 124.877 3.5195C124.595 3.35409 124.375 3.12742 124.215 2.83949C124.056 2.55156 123.976 2.22993 123.976 1.87461C123.976 1.51929 124.056 1.20073 124.215 0.91893C124.375 0.631 124.595 0.40739 124.877 0.24811C125.159 0.0827003 125.48 0 125.842 0ZM125.842 3.39085C126.283 3.39085 126.638 3.24995 126.908 2.96814C127.184 2.68633 127.321 2.32183 127.321 1.87461C127.321 1.4274 127.184 1.06289 126.908 0.78109C126.638 0.49928 126.283 0.35838 125.842 0.35838C125.395 0.35838 125.036 0.49928 124.767 0.78109C124.503 1.06289 124.372 1.4274 124.372 1.87461C124.372 2.32183 124.503 2.68633 124.767 2.96814C125.036 3.24995 125.395 3.39085 125.842 3.39085ZM126.669 1.48866C126.669 1.63569 126.629 1.76128 126.55 1.86542C126.476 1.96344 126.372 2.03389 126.237 2.07678L126.752 2.83949L126.173 2.84868L125.732 2.11354H125.575V2.84868H125.098V0.87298H125.98C126.188 0.87298 126.353 0.92812 126.476 1.03839C126.605 1.14866 126.669 1.29875 126.669 1.48866ZM125.575 1.7184H125.952C126.02 1.7184 126.075 1.70002 126.118 1.66326C126.167 1.6265 126.191 1.57443 126.191 1.50704C126.191 1.43965 126.167 1.39064 126.118 1.36001C126.075 1.32326 126.02 1.30488 125.952 1.30488H125.575V1.7184Z" fill="black"/>
</svg>
