<svg width="30" height="30" viewBox="0 0 30 30" fill="none" xmlns="http://www.w3.org/2000/svg">
<path d="M14.9946 11.5645C13.1015 11.5645 11.5664 13.0996 11.5664 14.9927V18.4209H14.9946C16.8878 18.4209 18.4229 16.8858 18.4229 14.9927C18.4229 13.0996 16.8878 11.5645 14.9946 11.5645Z" fill="white"/>
<path d="M14.993 0C6.71426 0 0 6.71426 0 14.993V29.9861H6.85647V14.993C6.85647 10.5005 10.5005 6.85649 14.993 6.85649C19.4856 6.85649 23.1296 10.5005 23.1296 14.993C23.1296 19.4856 19.4856 23.1296 14.993 23.1296H11.5648V29.9861H14.993C23.2718 29.9861 29.9861 23.2718 29.9861 14.993C29.9861 6.71426 23.2718 0 14.993 0Z" fill="white"/>
</svg>
