<svg width="390" height="54" viewBox="0 0 390 54" fill="none" xmlns="http://www.w3.org/2000/svg">
<path d="M21.785 33V31.53H23.585V25.68H21.785V24.24H22.625C23.63 24.24 23.915 24 23.915 23.49V23.355H25.61V31.53H27.41V33H21.785ZM29.2426 33V32.52C29.2426 28.2 34.3576 28.44 34.3576 26.16C34.3576 25.26 33.8176 24.72 32.8726 24.72C31.8376 24.72 31.3126 25.275 31.1626 26.205H29.1976C29.4676 24.315 30.8026 23.13 32.8876 23.13C35.1376 23.13 36.2926 24.465 36.2926 26.145C36.2926 29.04 32.0476 29.295 31.2526 31.53H36.3226V33H29.2426ZM37.7352 27.69V25.575H39.8502V27.69H37.7352ZM37.7352 33V30.885H39.8502V33H37.7352ZM44.7869 33.225C42.3569 33.225 40.9319 31.35 40.9319 28.185C40.9319 24.96 42.3719 23.13 44.7869 23.13C47.2169 23.13 48.6419 25.005 48.6419 28.185C48.6419 31.395 47.2019 33.225 44.7869 33.225ZM44.7869 31.605C46.0019 31.605 46.6619 30.39 46.6619 28.185C46.6619 25.98 45.9869 24.75 44.7869 24.75C43.5569 24.75 42.8969 25.965 42.8969 28.185C42.8969 30.36 43.5719 31.605 44.7869 31.605ZM57.0895 30.24C57.0895 31.89 55.7845 33.225 53.3095 33.225C51.1195 33.225 49.6795 32.025 49.3945 30.09H51.3445C51.5095 31.035 52.1245 31.635 53.2945 31.635C54.4795 31.635 55.1395 31.11 55.1395 30.165C55.1395 29.445 54.7195 28.77 52.9045 28.77H52.3495V27.345H52.7995C54.5695 27.345 54.8695 26.61 54.8695 26.025C54.8695 25.215 54.3145 24.72 53.3095 24.72C52.2445 24.72 51.6895 25.275 51.5245 26.205H49.6045C49.8595 24.315 51.2245 23.13 53.3245 23.13C55.6045 23.13 56.8195 24.42 56.8195 26.01C56.8195 26.895 56.4445 27.555 55.5895 27.96C56.6545 28.44 57.0895 29.235 57.0895 30.24Z" fill="#0A0B0D"/>
<path fill-rule="evenodd" clip-rule="evenodd" d="M369.41 21C370.658 21 371.111 21.13 371.567 21.374C372.024 21.6181 372.382 21.9763 372.626 22.4326C372.87 22.8889 373 23.3418 373 24.5898V28.9102C373 30.1582 372.87 30.6111 372.626 31.0674C372.382 31.5237 372.024 31.8819 371.567 32.126C371.111 32.37 370.658 32.5 369.41 32.5H354.59C353.342 32.5 352.889 32.37 352.433 32.126C351.976 31.8819 351.618 31.5237 351.374 31.0674C351.13 30.6111 351 30.1582 351 28.9102V24.5898C351 23.3418 351.13 22.8889 351.374 22.4326C351.618 21.9763 351.976 21.6181 352.433 21.374C352.889 21.13 353.342 21 354.59 21H369.41ZM354.59 22C353.603 22 353.258 22.0667 352.904 22.2559C352.622 22.4067 352.407 22.6223 352.256 22.9043C352.067 23.2581 352 23.603 352 24.5898V28.9102C352 29.897 352.067 30.2419 352.256 30.5957C352.407 30.8777 352.622 31.0933 352.904 31.2441C353.258 31.4333 353.603 31.5 354.59 31.5H369.41C370.397 31.5 370.742 31.4333 371.096 31.2441C371.378 31.0933 371.593 30.8777 371.744 30.5957C371.933 30.2419 372 29.897 372 28.9102V24.5898C372 23.603 371.933 23.2581 371.744 22.9043C371.593 22.6223 371.378 22.4067 371.096 22.2559C370.742 22.0667 370.397 22 369.41 22H354.59Z" fill="#0A0B0D"/>
<path d="M374 24.6904C374 24.6904 375.5 25.4539 375.5 26.6904C375.5 27.927 374 28.6904 374 28.6904V24.6904Z" fill="#0A0B0D"/>
<path d="M353 25.477C353 24.5809 353 24.1329 353.174 23.7906C353.328 23.4895 353.573 23.2448 353.874 23.0914C354.216 22.917 354.664 22.917 355.56 22.917H368.44C369.336 22.917 369.784 22.917 370.126 23.0914C370.427 23.2448 370.672 23.4895 370.826 23.7906C371 24.1329 371 24.5809 371 25.477V28.0237C371 28.9197 371 29.3678 370.826 29.71C370.672 30.0111 370.427 30.2559 370.126 30.4093C369.784 30.5837 369.336 30.5837 368.44 30.5837H355.56C354.664 30.5837 354.216 30.5837 353.874 30.4093C353.573 30.2559 353.328 30.0111 353.174 29.71C353 29.3678 353 28.9197 353 28.0237V25.477Z" fill="#0A0B0D"/>
<path d="M310 28.1406C310.279 28.1406 310.418 28.14 310.534 28.1631C311.01 28.2577 311.382 28.6304 311.477 29.1064C311.5 29.2223 311.5 29.3618 311.5 29.6406V30.6406C311.5 30.9193 311.5 31.0589 311.477 31.1748C311.382 31.6506 311.01 32.0225 310.534 32.1172C310.418 32.1402 310.279 32.1406 310 32.1406C309.721 32.1406 309.582 32.1402 309.466 32.1172C308.99 32.0225 308.618 31.6506 308.523 31.1748C308.5 31.0589 308.5 30.9193 308.5 30.6406V29.6406C308.5 29.3618 308.5 29.2223 308.523 29.1064C308.618 28.6304 308.99 28.2577 309.466 28.1631C309.582 28.14 309.721 28.1406 310 28.1406Z" fill="#0A0B0D"/>
<path d="M314.797 26.1406C315.076 26.1406 315.215 26.141 315.331 26.164C315.807 26.2588 316.179 26.6305 316.273 27.1064C316.296 27.2223 316.297 27.3618 316.297 27.6406V30.6406C316.297 30.9194 316.296 31.0589 316.273 31.1748C316.179 31.6507 315.807 32.0224 315.331 32.1172C315.215 32.1402 315.076 32.1406 314.797 32.1406C314.518 32.1406 314.379 32.1402 314.263 32.1172C313.787 32.0224 313.415 31.6507 313.32 31.1748C313.297 31.0589 313.297 30.9194 313.297 30.6406V27.6406C313.297 27.3618 313.297 27.2223 313.32 27.1064C313.415 26.6305 313.787 26.2588 314.263 26.164C314.379 26.141 314.518 26.1406 314.797 26.1406Z" fill="#0A0B0D"/>
<path d="M324.102 21.4404C324.38 21.4404 324.52 21.4408 324.636 21.4638C325.112 21.5586 325.483 21.9303 325.578 22.4062C325.601 22.5221 325.602 22.6616 325.602 22.9404V30.6406C325.602 30.9193 325.601 31.0589 325.578 31.1748C325.483 31.6506 325.112 32.0225 324.636 32.1172C324.52 32.1402 324.38 32.1406 324.102 32.1406C323.823 32.1406 323.683 32.1402 323.567 32.1172C323.092 32.0225 322.72 31.6506 322.625 31.1748C322.602 31.0589 322.602 30.9193 322.602 30.6406V22.9404C322.602 22.6616 322.602 22.5221 322.625 22.4062C322.72 21.9303 323.091 21.5586 323.567 21.4638C323.683 21.4408 323.823 21.4404 324.102 21.4404Z" fill="#0A0B0D"/>
<path d="M319.398 23.8398C319.677 23.8398 319.817 23.8402 319.933 23.8633C320.409 23.958 320.78 24.3297 320.875 24.8056C320.898 24.9216 320.898 25.061 320.898 25.3398V30.6396C320.898 30.9184 320.898 31.0579 320.875 31.1738C320.78 31.6498 320.409 32.0225 319.933 32.1172C319.817 32.1402 319.677 32.1396 319.398 32.1396C319.12 32.1396 318.98 32.1402 318.864 32.1172C318.388 32.0225 318.017 31.6498 317.922 31.1738C317.899 31.0579 317.898 30.9184 317.898 30.6396V25.3398C317.898 25.061 317.899 24.9216 317.922 24.8056C318.017 24.3297 318.388 23.958 318.864 23.8633C318.98 23.8402 319.12 23.8398 319.398 23.8398Z" fill="#0A0B0D"/>
<path fill-rule="evenodd" clip-rule="evenodd" d="M338.302 23.5366C340.536 23.5367 342.685 24.3952 344.305 25.9348C344.427 26.0536 344.622 26.0521 344.742 25.9314L345.907 24.755C345.968 24.6938 346.002 24.6108 346.002 24.5245C346.001 24.4382 345.966 24.3557 345.905 24.2952C341.654 20.2219 334.949 20.2219 330.699 24.2952C330.637 24.3557 330.602 24.4382 330.602 24.5245C330.601 24.6108 330.635 24.6937 330.696 24.755L331.862 25.9314C331.982 26.0523 332.177 26.0538 332.299 25.9348C333.918 24.3951 336.067 23.5366 338.302 23.5366ZM338.304 27.3644C339.532 27.3643 340.715 27.8206 341.625 28.6447C341.749 28.7616 341.942 28.7591 342.062 28.6389L343.227 27.4625C343.288 27.4008 343.322 27.3171 343.321 27.2301C343.32 27.1431 343.285 27.0601 343.222 26.9997C340.451 24.4219 336.159 24.4219 333.388 26.9997C333.326 27.0601 333.29 27.1432 333.289 27.2302C333.288 27.3172 333.322 27.4009 333.384 27.4625L334.548 28.6389C334.668 28.7591 334.862 28.7616 334.985 28.6447C335.894 27.8212 337.077 27.3649 338.304 27.3644ZM340.539 30.1713C340.601 30.1101 340.635 30.026 340.634 29.9388C340.632 29.8516 340.594 29.769 340.529 29.7104C339.243 28.6225 337.359 28.6225 336.073 29.7104C336.008 29.7689 335.971 29.8515 335.969 29.9387C335.967 30.026 336.001 30.1101 336.063 30.1713L338.078 32.2038C338.137 32.2635 338.217 32.2971 338.301 32.2971C338.385 32.2971 338.466 32.2635 338.525 32.2038L340.539 30.1713Z" fill="#0A0B0D"/>
</svg>
